<mxfile host="app.diagrams.net" modified="2024-02-28T20:19:48.489Z" agent="Mozilla/5.0 (Windows NT 10.0; Win64; x64) AppleWebKit/537.36 (KHTML, like Gecko) Chrome/122.0.0.0 Safari/537.36" version="23.1.5" etag="YN7l5Ko8veN33xS6fp41" type="device">
  <diagram id="mYDXqYlmARQQZP_iILof" name="Страница — 1">
    <mxGraphModel dx="3000" dy="1614" grid="1" gridSize="10" guides="1" tooltips="1" connect="1" arrows="1" fold="1" page="1" pageScale="1" pageWidth="827" pageHeight="1169" math="0" shadow="0">
      <root>
        <mxCell id="0" />
        <mxCell id="1" parent="0" />
      </root>
    </mxGraphModel>
  </diagram>
</mxfile>
